<?xml version="1.0" encoding="UTF-8"?>
<svg version="1.1" xmlns="http://www.w3.org/2000/svg" width="1663" height="362">
<path d="M0 0 C0.92063232 0.00757324 1.84126465 0.01514648 2.78979492 0.02294922 C15.98849429 0.34138222 25.32581725 4.62918376 34.375 14.125 C44.9074315 26.7975831 44.98209603 42.45477934 45.1015625 58.140625 C45.12031763 59.7153215 45.1398941 61.29000841 45.1602478 62.86468506 C45.21111695 66.96785777 45.25098158 71.0710629 45.28839111 75.17437744 C45.32871777 79.37804891 45.37967784 83.58159081 45.4296875 87.78515625 C45.52590978 96.00251496 45.61048254 104.21993894 45.6875 112.4375 C47.6054143 109.25074916 49.52160278 106.06296386 51.4375 102.875 C51.97632813 101.97974609 52.51515625 101.08449219 53.0703125 100.16210938 C56.00025841 95.28482136 58.88805041 90.39089503 61.6875 85.4375 C65.61880422 86.03143805 68.47222203 87.26674593 71.9375 89.1875 C83.07135778 94.92019352 95.88711531 98.59141794 108.4375 98.5625 C110.13132812 98.56636719 110.13132812 98.56636719 111.859375 98.5703125 C114.63771112 98.63104612 114.63771112 98.63104612 116.6875 97.4375 C116.6875 96.1175 116.6875 94.7975 116.6875 93.4375 C115.18113316 92.96307096 113.67464705 92.48901877 112.16772461 92.01635742 C110.77607604 91.57941936 109.38498328 91.14070801 107.99438477 90.70043945 C103.68974539 89.34591662 99.37408524 88.05506422 95.03125 86.828125 C78.37966132 82.07072597 63.216083 77.5114023 53.32421875 62.34765625 C48.69602589 53.29802829 49.42408995 40.71906121 51.3828125 30.98046875 C54.76057723 20.83298227 61.93728973 12.32941811 71.1875 6.99609375 C82.73396218 1.3739065 94.53292288 -0.10382633 107.25 0 C108.55976807 0.00757324 109.86953613 0.01514648 111.21899414 0.02294922 C130.62190744 0.34936895 147.90416058 4.56744995 164.6875 14.4375 C163.32741052 18.86800608 161.57890424 22.82663736 159.4296875 26.9296875 C159.12177277 27.52049103 158.81385803 28.11129456 158.49661255 28.72000122 C157.52270491 30.58636128 156.54272261 32.44945024 155.5625 34.3125 C154.8967295 35.58572533 154.23136096 36.85916093 153.56640625 38.1328125 C151.94474259 41.23681879 150.31761907 44.33792416 148.6875 47.4375 C143.54505845 45.76851855 138.50116625 43.99874686 133.5 41.9375 C123.7392685 38.16319845 113.24059588 35.30369631 102.6875 36.4375 C101.6975 36.9325 101.6975 36.9325 100.6875 37.4375 C100.03536708 39.46213255 100.03536708 39.46213255 99.6875 41.4375 C105.63686949 43.26776688 111.60457668 44.9615038 117.62817383 46.52929688 C153.54867369 55.95399829 153.54867369 55.95399829 163.6875 71.4375 C166.48294658 77.66241197 167.20599758 83.54397619 167.125 90.3125 C167.11887695 91.18729004 167.11275391 92.06208008 167.10644531 92.96337891 C166.84747862 103.69456034 163.61401661 112.13202057 156.25 120.0625 C141.71860615 133.53062113 123.66949113 136.00507889 104.39306641 135.296875 C86.35034118 134.37603416 59.07485005 130.82485005 45.6875 117.4375 C45.3575 122.0575 45.0275 126.6775 44.6875 131.4375 C26.8675 131.4375 9.0475 131.4375 -9.3125 131.4375 C-9.36148437 126.6215625 -9.41046875 121.805625 -9.4609375 116.84375 C-9.49634942 113.7812298 -9.53232397 110.71873668 -9.5703125 107.65625 C-9.63047217 102.8021241 -9.6886192 97.94803583 -9.734375 93.09375 C-9.77142147 89.17733455 -9.81783216 85.26112897 -9.87056351 81.34489441 C-9.88900513 79.8555217 -9.90415029 78.36610418 -9.91584396 76.87666321 C-9.77131239 61.81640407 -9.77131239 61.81640407 -17.3125 49.4375 C-22.59473764 47.67675412 -26.68935861 47.64124196 -31.625 50.0625 C-35.53530279 53.51811642 -37.11791906 56.73295283 -37.71122742 61.9303894 C-37.72233047 63.21390289 -37.73343353 64.49741638 -37.74487305 65.81982422 C-37.7550647 66.53271103 -37.76525635 67.24559784 -37.77575684 67.98008728 C-37.80575699 70.31753531 -37.81513249 72.65457268 -37.82421875 74.9921875 C-37.84107513 76.62030383 -37.85922667 78.24840723 -37.87861633 79.87649536 C-37.92601852 84.1474605 -37.95589094 88.41837316 -37.98205566 92.68951416 C-38.01716608 97.82172584 -38.07415089 102.95373608 -38.12744904 108.08578491 C-38.2058483 115.86966404 -38.25654008 123.65328155 -38.3125 131.4375 C-56.1325 131.4375 -73.9525 131.4375 -92.3125 131.4375 C-92.3125 89.1975 -92.3125 46.9575 -92.3125 3.4375 C-74.4925 3.4375 -56.6725 3.4375 -38.3125 3.4375 C-37.8175 10.3675 -37.8175 10.3675 -37.3125 17.4375 C-35.9203125 15.9215625 -35.9203125 15.9215625 -34.5 14.375 C-24.71352791 4.62806922 -13.70601596 -0.15833483 0 0 Z " fill="#FFFFFF" transform="translate(1422.3125,133.5625)"/>
<path d="M0 0 C19.47 0 38.94 0 59 0 C63.29 7.26 67.58 14.52 72 22 C74.27652704 25.74132272 76.55479811 29.47424827 78.875 33.1875 C79.40963867 34.04698242 79.94427734 34.90646484 80.49511719 35.79199219 C81.99310297 38.19696511 83.49515545 40.59931422 85 43 C85.40573242 43.64727051 85.81146484 44.29454102 86.22949219 44.96142578 C89.26255072 50.24939355 89.26255072 50.24939355 93 55 C93.43119141 54.2879541 93.86238281 53.5759082 94.30664062 52.84228516 C102.15461363 39.88732866 110.01323036 26.93896227 117.94262695 14.03363037 C118.99060266 12.32779644 120.03729941 10.621177 121.08398438 8.91455078 C121.71626953 7.88700684 122.34855469 6.85946289 123 5.80078125 C123.556875 4.89497314 124.11375 3.98916504 124.6875 3.0559082 C126 1 126 1 127 0 C146.14 0 165.28 0 185 0 C185 54.12 185 108.24 185 164 C166.85 164 148.7 164 130 164 C129.67 138.59 129.34 113.18 129 87 C123.72 95.25 118.44 103.5 113 112 C109.90470495 116.77726671 106.80636884 121.55084505 103.6875 126.3125 C102.97400391 127.40626953 102.26050781 128.50003906 101.52539062 129.62695312 C100.49768555 131.19799805 100.49768555 131.19799805 99.44921875 132.80078125 C98.85455811 133.70997314 98.25989746 134.61916504 97.6472168 135.5559082 C94.52827956 140.18369547 94.52827956 140.18369547 93 142 C92.34 142 91.68 142 91 142 C89.57397461 140.11767578 89.57397461 140.11767578 87.90234375 137.4453125 C87.27352295 136.44983398 86.64470215 135.45435547 85.99682617 134.42871094 C85.31724854 133.33848633 84.6376709 132.24826172 83.9375 131.125 C82.49607205 128.84032261 81.05339433 126.55647389 79.609375 124.2734375 C79.04913887 123.38537415 79.04913887 123.38537415 78.47758484 122.47937012 C73.58119635 114.72932138 68.53270476 107.07887325 63.49780273 99.41845703 C62.48375366 97.87327393 62.48375366 97.87327393 61.44921875 96.296875 C60.85455811 95.39291992 60.25989746 94.48896484 59.6472168 93.55761719 C58.04591126 91.07128596 56.52155301 88.53592169 55 86 C54.67 111.74 54.34 137.48 54 164 C36.18 164 18.36 164 0 164 C0 109.88 0 55.76 0 0 Z " fill="#FFFFFF" transform="translate(732,101)"/>
<path d="M0 0 C17.82 0 35.64 0 54 0 C54 10.89 54 21.78 54 33 C63.9 33 73.8 33 84 33 C84 46.53 84 60.06 84 74 C74.1 74 64.2 74 54 74 C54.09743226 78.55367616 54.20046406 83.10654499 54.31738281 87.65966797 C54.35543978 89.20549035 54.39033132 90.75139428 54.421875 92.29736328 C54.46803654 94.53187018 54.5259398 96.76582671 54.5859375 99 C54.60326431 100.02081665 54.60326431 100.02081665 54.62094116 101.06225586 C54.78417035 106.48480738 55.01469211 112.95064992 58.9375 117 C67.79905287 119.89356829 75.07880281 117.43305378 84 115 C84 128.86 84 142.72 84 157 C72.26250226 162.86874887 62.02232174 164.51655383 49 164.4375 C47.83210938 164.45748047 46.66421875 164.47746094 45.4609375 164.49804688 C32.343097 164.49077534 20.77205733 161.16945249 11.03515625 152.1875 C0.79438661 141.44876482 -0.33346707 126.94007896 -0.1953125 112.76953125 C-0.1924826 111.65309738 -0.18965271 110.53666351 -0.18673706 109.38639832 C-0.17564707 105.86165103 -0.1505638 102.33716896 -0.125 98.8125 C-0.11495574 96.40560266 -0.10583243 93.99870129 -0.09765625 91.59179688 C-0.07574446 85.72776423 -0.04129302 79.86392689 0 74 C-4.29 74 -8.58 74 -13 74 C-13 78.62 -13 83.24 -13 88 C-14.18335938 88.08636719 -15.36671875 88.17273438 -16.5859375 88.26171875 C-27.19414084 89.15396607 -36.6350532 90.10440285 -44.375 98.1875 C-51.18544723 107.02371765 -52.11903402 117.23757279 -52.31640625 127.9921875 C-52.33505737 128.83144775 -52.3537085 129.67070801 -52.3729248 130.53540039 C-52.44084546 133.64850068 -52.50123381 136.76176164 -52.5625 139.875 C-52.706875 146.84625 -52.85125 153.8175 -53 161 C-70.82 161 -88.64 161 -107 161 C-107 118.76 -107 76.52 -107 33 C-89.18 33 -71.36 33 -53 33 C-52.505 42.405 -52.505 42.405 -52 52 C-50.865625 50.329375 -49.73125 48.65875 -48.5625 46.9375 C-42.62531817 38.81568612 -36.02322515 33.04688228 -26 31 C-15.9393628 29.5303186 -15.9393628 29.5303186 -13 31 C-13 31.66 -13 32.32 -13 33 C-8.71 33 -4.42 33 0 33 C0 22.11 0 11.22 0 0 Z " fill="#FFFFFF" transform="translate(1174,104)"/>
<path d="M0 0 C46.2 0 92.4 0 140 0 C140 14.85 140 29.7 140 45 C111.62 45 83.24 45 54 45 C54 50.28 54 55.56 54 61 C80.73 61 107.46 61 135 61 C135 74.2 135 87.4 135 101 C108.27 101 81.54 101 54 101 C54 106.94 54 112.88 54 119 C83.04 119 112.08 119 142 119 C142 133.85 142 148.7 142 164 C95.14 164 48.28 164 0 164 C0 109.88 0 55.76 0 0 Z " fill="#FFFFFF" transform="translate(71,101)"/>
<path d="M0 0 C0.92063232 0.00757324 1.84126465 0.01514648 2.78979492 0.02294922 C15.98849429 0.34138222 25.32581725 4.62918376 34.375 14.125 C45.89155087 27.98167194 44.9767005 45.30161668 44.8828125 62.296875 C44.87907544 64.29754494 44.87623175 66.29821673 44.87423706 68.29888916 C44.86665516 73.52666408 44.84705431 78.75432523 44.8248291 83.98205566 C44.80062525 90.2748174 44.79156374 96.56761749 44.77992249 102.8604126 C44.76062607 112.38618716 44.72226565 121.91171283 44.6875 131.4375 C26.8675 131.4375 9.0475 131.4375 -9.3125 131.4375 C-9.36148438 126.6215625 -9.41046875 121.805625 -9.4609375 116.84375 C-9.49634942 113.7812298 -9.53232397 110.71873668 -9.5703125 107.65625 C-9.63047217 102.8021241 -9.6886192 97.94803583 -9.734375 93.09375 C-9.77142147 89.17733455 -9.81783216 85.26112897 -9.87056351 81.34489441 C-9.88900513 79.8555217 -9.90415029 78.36610418 -9.91584396 76.87666321 C-9.77131239 61.81640407 -9.77131239 61.81640407 -17.3125 49.4375 C-22.59473764 47.67675412 -26.68935861 47.64124196 -31.625 50.0625 C-35.53530279 53.51811642 -37.11791906 56.73295283 -37.71122742 61.9303894 C-37.72233047 63.21390289 -37.73343353 64.49741638 -37.74487305 65.81982422 C-37.7550647 66.53271103 -37.76525635 67.24559784 -37.77575684 67.98008728 C-37.80575699 70.31753531 -37.81513249 72.65457268 -37.82421875 74.9921875 C-37.84107513 76.62030383 -37.85922667 78.24840723 -37.87861633 79.87649536 C-37.92601852 84.1474605 -37.95589094 88.41837316 -37.98205566 92.68951416 C-38.01716608 97.82172584 -38.07415089 102.95373608 -38.12744904 108.08578491 C-38.2058483 115.86966404 -38.25654008 123.65328155 -38.3125 131.4375 C-56.1325 131.4375 -73.9525 131.4375 -92.3125 131.4375 C-92.3125 89.1975 -92.3125 46.9575 -92.3125 3.4375 C-74.4925 3.4375 -56.6725 3.4375 -38.3125 3.4375 C-37.8175 10.3675 -37.8175 10.3675 -37.3125 17.4375 C-35.9203125 15.9215625 -35.9203125 15.9215625 -34.5 14.375 C-24.71352791 4.62806922 -13.70601596 -0.15833483 0 0 Z " fill="#FFFFFF" transform="translate(622.3125,133.5625)"/>
<path d="M0 0 C1.13598633 0.00829834 2.27197266 0.01659668 3.44238281 0.02514648 C23.08111649 0.4176418 40.61196095 7.06012972 54.79541016 20.90771484 C68.92459857 35.76731448 73.00105906 53.5293076 72.6171875 73.3671875 C71.85840373 90.71158525 63.342075 105.49241397 50.84375 117.2578125 C36.51533382 129.29886103 19.08099511 135.05157785 0.5 134.875 C-0.63598633 134.86670166 -1.77197266 134.85840332 -2.94238281 134.84985352 C-22.58111649 134.4573582 -40.11196095 127.81487028 -54.29541016 113.96728516 C-68.42459857 99.10768552 -72.50105906 81.3456924 -72.1171875 61.5078125 C-71.35840373 44.16341475 -62.842075 29.38258603 -50.34375 17.6171875 C-36.01533382 5.57613897 -18.58099511 -0.17657785 0 0 Z M-14.54296875 51.37890625 C-20.03405163 58.4612293 -20.48472691 64.57879267 -19.75 73.4375 C-17.87923046 80.42471152 -12.90445631 84.97184707 -6.828125 88.578125 C-2.30942344 90.44676098 2.8143035 90.11503529 7.46875 88.8203125 C12.9614014 86.4331217 16.22923342 82.52785752 19.25 77.4375 C21.3496038 71.1386886 21.46060109 63.11504343 18.6875 57 C15.60830646 51.81687351 10.81608664 47.73926515 5.25 45.4375 C-2.40393061 44.31804756 -9.18200212 45.57411232 -14.54296875 51.37890625 Z " fill="#FFFFFF" transform="translate(450.75,133.5625)"/>
<path d="M0 0 C2.48359951 0.00316506 4.96600905 -0.02041047 7.44946289 -0.0456543 C24.77219604 -0.11490818 42.07154589 2.50114285 55.55297852 14.31567383 C56.15754883 14.81583008 56.76211914 15.31598633 57.38500977 15.83129883 C65.49925724 23.11467565 69.86902916 33.7858072 70.7325325 44.55497932 C70.79617977 46.87487811 70.80089159 49.18665686 70.7800293 51.50732422 C70.78032135 52.37670624 70.7806134 53.24608826 70.78091431 54.14181519 C70.77953381 56.98242582 70.76403359 59.82276592 70.74829102 62.66333008 C70.74455633 64.64586748 70.74171151 66.62840674 70.73971558 68.61094666 C70.73211503 73.80424177 70.71249758 78.99742329 70.69030762 84.19067383 C70.66615497 90.43497114 70.65705116 96.67930664 70.645401 102.92363739 C70.62607089 112.38772831 70.58772334 121.85157044 70.55297852 131.31567383 C52.73297852 131.31567383 34.91297852 131.31567383 16.55297852 131.31567383 C16.22297852 127.68567383 15.89297852 124.05567383 15.55297852 120.31567383 C14.60422852 121.20254883 13.65547852 122.08942383 12.67797852 123.00317383 C3.31151798 131.02344266 -7.17243606 133.66937044 -19.25952148 133.62817383 C-20.66041016 133.65234375 -20.66041016 133.65234375 -22.08959961 133.67700195 C-33.44127758 133.68487959 -44.23487556 130.40904068 -52.48999023 122.31176758 C-61.71910276 111.31161 -62.50069962 99.46927409 -61.67456055 85.63793945 C-61.2176044 80.97424107 -59.93169828 77.25874787 -57.44702148 73.31567383 C-57.01131836 72.60540039 -56.57561523 71.89512695 -56.12670898 71.16333008 C-49.14753344 60.92339218 -38.81090894 56.24666635 -26.98779297 53.72143555 C-22.31838981 52.97573092 -17.66633963 52.97887875 -12.94702148 53.00317383 C-11.90416992 53.00446289 -10.86131836 53.00575195 -9.78686523 53.00708008 C-0.77067868 53.11770813 7.77823727 54.31274376 16.55297852 56.31567383 C15.89055214 51.77755879 15.19696646 48.21335399 12.49047852 44.44067383 C3.66620755 38.05715866 -7.32557722 38.01915779 -17.78686523 39.68920898 C-22.32173648 40.56323282 -26.80016285 41.63575629 -31.2746582 42.77563477 C-34.98179487 43.69721111 -38.71459245 44.50372982 -42.44702148 45.31567383 C-43.75957189 40.69263458 -45.05924609 36.06624031 -46.34716797 31.4362793 C-46.78701168 29.86205059 -47.23034563 28.28879269 -47.67724609 26.71655273 C-48.31937081 24.45518804 -48.94882305 22.19061813 -49.57592773 19.92504883 C-49.77795303 19.22385925 -49.97997833 18.52266968 -50.18812561 17.80023193 C-51.13293619 14.33896155 -51.82569995 11.72226992 -50.44702148 8.31567383 C-47.22193469 7.34325367 -43.99131281 6.39055098 -40.75952148 5.44067383 C-39.8668457 5.17125977 -38.97416992 4.9018457 -38.05444336 4.62426758 C-25.38706291 0.92773663 -13.11571725 -0.03485819 0 0 Z M-6.44702148 80.31567383 C-7.34420898 81.18192383 -7.34420898 81.18192383 -8.25952148 82.06567383 C-10.00530814 85.37348013 -10.56814639 88.61780166 -10.44702148 92.31567383 C-8.96368864 96.45339176 -7.40337004 99.28403538 -3.44702148 101.31567383 C1.01881844 102.32408929 3.40530632 102.69823123 7.74047852 101.25317383 C12.94771343 97.66596755 16.23828625 93.5305827 17.55297852 87.31567383 C17.69846611 83.97447588 17.67184893 80.65725334 17.55297852 77.31567383 C9.70395864 74.91410805 -0.31898443 74.35325939 -6.44702148 80.31567383 Z " fill="#FFFFFF" transform="translate(986.447021484375,134.684326171875)"/>
<path d="M0 0 C17.82 0 35.64 0 54 0 C54 10.89 54 21.78 54 33 C63.9 33 73.8 33 84 33 C84 46.53 84 60.06 84 74 C74.1 74 64.2 74 54 74 C54.09743226 78.55367616 54.20046406 83.10654499 54.31738281 87.65966797 C54.35543978 89.20549035 54.39033132 90.75139428 54.421875 92.29736328 C54.46803654 94.53187018 54.5259398 96.76582671 54.5859375 99 C54.59748871 99.68054443 54.60903992 100.36108887 54.62094116 101.06225586 C54.78417035 106.48480738 55.01469211 112.95064992 58.9375 117 C67.79905287 119.89356829 75.07880281 117.43305378 84 115 C84 128.86 84 142.72 84 157 C72.26250226 162.86874887 62.02232174 164.51655383 49 164.4375 C47.83210938 164.45748047 46.66421875 164.47746094 45.4609375 164.49804688 C32.343097 164.49077534 20.77205733 161.16945249 11.03515625 152.1875 C0.79438661 141.44876482 -0.33346707 126.94007896 -0.1953125 112.76953125 C-0.1924826 111.65309738 -0.18965271 110.53666351 -0.18673706 109.38639832 C-0.17564707 105.86165103 -0.1505638 102.33716896 -0.125 98.8125 C-0.11495574 96.40560266 -0.10583243 93.99870129 -0.09765625 91.59179688 C-0.07574446 85.72776423 -0.04129302 79.86392689 0 74 C-4.95 74 -9.9 74 -15 74 C-15 60.47 -15 46.94 -15 33 C-10.05 33 -5.1 33 0 33 C0 22.11 0 11.22 0 0 Z " fill="#FFFFFF" transform="translate(296,104)"/>
<path d="M0 0 C17.82 0 35.64 0 54 0 C54 56.76 54 113.52 54 172 C36.18 172 18.36 172 0 172 C0 115.24 0 58.48 0 0 Z " fill="#FFFFFF" transform="translate(221,93)"/>
<path d="M0 0 C17.82 0 35.64 0 54 0 C54 42.24 54 84.48 54 128 C36.18 128 18.36 128 0 128 C0 85.76 0 43.52 0 0 Z " fill="#FFFFFF" transform="translate(1265,137)"/>
<path d="M0 0 C18.48 0 36.96 0 56 0 C56 11.22 56 22.44 56 34 C37.52 34 19.04 34 0 34 C0 22.78 0 11.56 0 0 Z " fill="#FFFFFF" transform="translate(1264,94)"/>
</svg>
