<?xml version="1.0" encoding="UTF-8"?>
<svg version="1.1" xmlns="http://www.w3.org/2000/svg" width="400" height="400">
<path d="M0 0 C1.98847679 1.09808336 3.99221541 2.16445879 5.99804688 3.23046875 C14.53079471 7.82733995 22.34023685 12.9275254 29.88867188 19.04296875 C30.40494141 19.45772461 30.92121094 19.87248047 31.453125 20.29980469 C72.63718752 53.55230717 95.24485923 98.43240623 102.35742188 150.47265625 C102.64967164 153.33832757 102.80556931 156.16328431 102.88867188 159.04296875 C102.90913574 159.7385791 102.92959961 160.43418945 102.95068359 161.15087891 C104.26884484 213.56140563 86.53073461 262.1307042 50.49414062 300.30859375 C49.20443359 301.66210938 49.20443359 301.66210938 47.88867188 303.04296875 C47.16292969 303.8215625 46.4371875 304.60015625 45.68945312 305.40234375 C13.20894763 339.26372102 -35.13723379 358.0081521 -81.58789062 359.16796875 C-134.89458313 360.06565451 -182.66087688 340.72048852 -221.11132812 304.04296875 C-222.20574219 303.01042969 -222.20574219 303.01042969 -223.32226562 301.95703125 C-258.00794484 268.36813241 -276.38154255 219.49678518 -277.27758789 171.74658203 C-277.57716072 139.7852607 -270.51303279 108.13412821 -255.11132812 80.04296875 C-254.60988281 79.06585938 -254.1084375 78.08875 -253.59179688 77.08203125 C-245.2158491 60.97621432 -233.47648417 47.19699974 -221.11132812 34.04296875 C-220.49 33.35589844 -219.86867187 32.66882812 -219.22851562 31.9609375 C-165.66888835 -25.08126644 -67.4195399 -37.24126966 0 0 Z " fill="#11212F" transform="translate(287.111328125,30.95703125)"/>
<path d="M0 0 C43.56 0 87.12 0 132 0 C132 14.19 132 28.38 132 43 C105.27 43 78.54 43 51 43 C51 48.28 51 53.56 51 59 C75.75 59 100.5 59 126 59 C126 71.21 126 83.42 126 96 C101.25 96 76.5 96 51 96 C51 101.28 51 106.56 51 112 C78.06 112 105.12 112 133 112 C133 126.19 133 140.38 133 155 C89.11 155 45.22 155 0 155 C0 103.85 0 52.7 0 0 Z " fill="#FDFDFD" transform="translate(132,122)"/>
</svg>
