<?xml version="1.0" standalone="no"?>
<!DOCTYPE svg PUBLIC "-//W3C//DTD SVG 20010904//EN"
 "http://www.w3.org/TR/2001/REC-SVG-20010904/DTD/svg10.dtd">
<svg version="1.0" xmlns="http://www.w3.org/2000/svg"
 width="512.000000pt" height="512.000000pt" viewBox="0 0 512.000000 512.000000"
 preserveAspectRatio="xMidYMid meet">

<g transform="translate(0.000000,512.000000) scale(0.100000,-0.100000)"
fill="#000000" stroke="none">
<path d="M3107 4974 c-482 -87 -856 -476 -928 -964 -18 -124 -7 -322 25 -443
63 -244 217 -476 415 -625 135 -102 341 -194 467 -208 47 -6 55 -4 78 19 56
56 22 116 -80 141 -334 84 -600 327 -707 647 -38 115 -50 212 -44 356 10 257
102 467 283 647 148 148 329 242 538 277 100 17 311 6 411 -21 335 -91 604
-360 695 -695 31 -113 39 -322 16 -434 -43 -211 -126 -363 -280 -516 -117
-116 -215 -179 -356 -229 -98 -35 -130 -60 -130 -103 0 -33 42 -73 78 -73 66
0 251 80 365 157 221 151 396 400 463 658 35 135 43 339 20 474 -84 482 -453
852 -934 936 -105 18 -291 18 -395 -1z"/>
<path d="M3284 4410 c-33 -13 -54 -50 -54 -96 0 -39 -2 -43 -39 -58 -53 -20
-107 -70 -134 -120 -30 -57 -30 -165 0 -221 49 -93 119 -135 241 -144 76 -6
87 -10 108 -34 31 -36 31 -78 -1 -116 l-26 -30 -150 -3 -151 -3 -24 -28 c-31
-36 -31 -71 1 -102 21 -22 33 -25 100 -25 l75 0 0 -44 c0 -61 29 -96 80 -96
51 0 80 35 80 95 0 42 1 43 55 69 200 99 184 387 -26 461 -23 8 -71 15 -106
15 -58 0 -68 3 -94 29 -31 31 -36 64 -18 104 20 45 45 52 201 55 145 4 148 4
168 29 26 33 25 63 -1 97 -19 24 -26 26 -100 26 l-79 0 0 44 c0 69 -53 117
-106 96z"/>
<path d="M4672 2609 c-23 -4 -65 -20 -92 -35 -27 -15 -220 -177 -429 -360
l-380 -333 -27 59 c-28 62 -86 125 -143 154 -17 9 -116 36 -219 61 -103 24
-427 100 -719 169 -293 69 -565 131 -605 137 -142 22 -326 -2 -474 -63 -92
-38 -154 -81 -465 -324 l-285 -223 -50 24 c-99 49 -215 51 -304 5 -81 -43
-446 -307 -458 -332 -23 -48 15 -107 69 -108 28 0 61 21 299 188 74 53 155
104 179 115 52 23 112 17 159 -16 31 -22 726 -928 756 -985 22 -42 20 -110 -4
-149 -10 -18 -107 -102 -213 -188 -135 -108 -196 -163 -199 -179 -6 -31 15
-81 37 -90 50 -19 70 -7 276 158 112 90 214 180 226 199 40 64 56 131 50 210
-3 40 -9 82 -12 93 -6 18 4 29 62 67 38 25 103 57 145 71 136 46 168 42 805
-94 500 -107 571 -120 659 -120 156 0 305 48 420 136 93 71 1285 1166 1309
1203 40 59 57 120 57 202 1 121 -56 228 -155 294 -83 55 -177 74 -275 54z
m133 -160 c23 -7 57 -28 81 -53 71 -70 81 -162 26 -245 -21 -31 -1048 -978
-1242 -1144 -54 -47 -136 -89 -214 -112 -119 -35 -174 -28 -761 100 -579 125
-669 138 -801 116 -88 -16 -194 -60 -279 -117 -37 -25 -71 -42 -75 -37 -70 79
-599 778 -593 782 5 3 136 105 291 226 307 239 356 272 477 312 71 24 96 27
215 27 l135 0 705 -167 c388 -92 724 -174 747 -183 99 -36 128 -159 57 -243
-40 -47 -84 -56 -216 -42 -62 6 -283 29 -491 51 -255 26 -386 36 -402 30 -31
-12 -47 -43 -43 -82 6 -62 8 -63 538 -119 280 -29 507 -49 537 -46 30 3 74 17
102 32 27 15 262 214 522 442 261 229 488 426 506 440 54 41 108 51 178 32z"/>
</g>
</svg>
