<?xml version="1.0" standalone="no"?>
<!DOCTYPE svg PUBLIC "-//W3C//DTD SVG 20010904//EN"
 "http://www.w3.org/TR/2001/REC-SVG-20010904/DTD/svg10.dtd">
<svg version="1.0" xmlns="http://www.w3.org/2000/svg"
 width="512.000000pt" height="512.000000pt" viewBox="0 0 512.000000 512.000000"
 preserveAspectRatio="xMidYMid meet">

<g transform="translate(0.000000,512.000000) scale(0.100000,-0.100000)"
fill="#000000" stroke="none">
<path d="M2365 5114 c-446 -46 -824 -170 -1157 -380 -63 -40 -74 -98 -28 -144
32 -32 75 -25 159 25 113 66 313 159 428 199 194 67 441 117 641 129 l62 3 0
-297 0 -297 -37 -6 c-21 -3 -65 -8 -98 -11 -175 -18 -396 -85 -580 -177 -742
-368 -1132 -1211 -934 -2020 63 -257 186 -505 352 -706 l60 -74 -212 -211
-211 -212 -40 45 c-238 267 -432 631 -519 973 -103 399 -106 782 -10 1176 44
178 102 335 188 506 122 240 233 395 433 602 103 106 118 125 118 155 -1 55
-47 95 -100 83 -34 -8 -218 -190 -322 -320 -217 -272 -393 -627 -478 -965 -81
-323 -101 -673 -55 -990 144 -991 849 -1804 1816 -2095 604 -181 1289 -120
1861 166 312 156 632 412 846 678 165 205 327 491 417 735 156 423 195 935
105 1374 -138 678 -536 1267 -1110 1645 -154 101 -418 228 -595 286 -150 49
-330 91 -480 111 -84 11 -452 21 -520 14z m485 -185 c844 -94 1603 -676 1924
-1477 97 -240 141 -434 170 -749 l5 -53 -299 0 -299 0 -5 33 c-2 17 -12 85
-21 151 -68 493 -371 955 -814 1241 -102 66 -275 146 -407 189 -113 36 -308
76 -373 76 -20 0 -46 3 -58 6 l-23 6 0 299 0 298 53 -5 c28 -3 95 -9 147 -15z
m22 -778 c651 -133 1137 -620 1279 -1281 20 -90 23 -135 23 -310 0 -175 -3
-220 -23 -310 -142 -663 -618 -1139 -1281 -1281 -90 -20 -135 -23 -310 -23
-175 0 -220 3 -310 23 -670 144 -1163 644 -1286 1306 -28 150 -26 452 5 595
106 499 411 903 851 1129 172 88 351 145 540 171 106 14 401 4 512 -19z m2074
-1723 c-3 -24 -8 -74 -12 -113 -62 -703 -480 -1379 -1095 -1770 -277 -177
-605 -299 -944 -351 -165 -25 -503 -25 -665 -1 -448 69 -853 249 -1195 531
-52 43 -95 81 -95 85 0 3 94 100 209 215 l209 209 74 -60 c476 -389 1132 -507
1709 -307 503 174 889 546 1089 1049 55 138 88 284 116 513 l5 42 300 0 300 0
-5 -42z"/>
<path d="M2420 3834 c-84 -11 -201 -39 -280 -66 -106 -37 -258 -115 -287 -147
-29 -30 -30 -80 -3 -109 40 -42 62 -39 193 27 197 99 378 139 577 128 399 -23
762 -264 935 -621 158 -326 152 -665 -15 -1001 -33 -66 -60 -128 -60 -138 0
-26 54 -77 80 -77 26 0 61 18 77 39 26 33 102 189 128 261 136 380 81 807
-148 1150 -64 96 -241 273 -337 337 -139 93 -287 157 -450 194 -83 19 -331 33
-410 23z"/>
<path d="M2522 3489 c-14 -5 -30 -25 -39 -48 -13 -34 -20 -39 -54 -44 -111
-15 -258 -125 -319 -239 -102 -191 -73 -377 84 -534 74 -73 135 -109 221 -129
l50 -12 3 -296 c2 -234 0 -297 -10 -297 -27 1 -97 40 -138 76 -51 47 -89 119
-97 187 -11 95 -92 139 -148 82 -62 -61 -4 -255 113 -377 61 -65 164 -123 236
-133 39 -6 45 -11 59 -46 30 -76 117 -77 151 -2 18 37 24 42 63 48 71 10 174
69 235 133 176 184 182 435 15 618 -78 86 -144 126 -254 154 l-43 11 0 294 c0
230 3 295 13 295 26 -1 97 -40 137 -76 51 -47 89 -119 97 -187 11 -95 92 -139
148 -82 62 61 3 255 -113 377 -61 65 -164 123 -236 133 -39 6 -45 11 -59 46
-20 52 -63 70 -115 48z m-52 -544 c0 -221 -3 -285 -12 -285 -34 0 -118 52
-159 98 -109 121 -100 287 21 396 40 36 111 75 138 76 9 0 12 -64 12 -285z
m255 -509 c107 -49 185 -179 172 -286 -8 -65 -46 -138 -97 -184 -40 -36 -111
-75 -137 -76 -10 0 -13 64 -13 285 0 221 3 285 13 285 6 0 35 -11 62 -24z"/>
<path d="M1515 3278 c-28 -16 -38 -31 -89 -128 -53 -102 -97 -225 -122 -340
-26 -119 -26 -381 0 -500 57 -265 179 -485 373 -671 178 -171 380 -278 626
-331 133 -28 380 -30 502 -4 173 38 408 136 463 195 43 46 19 121 -44 137 -20
5 -55 -8 -148 -55 -257 -130 -519 -163 -777 -97 -214 54 -363 139 -520 295
-156 157 -241 306 -295 520 -66 257 -33 519 96 776 33 66 60 128 60 138 0 26
-54 77 -82 77 -13 0 -32 -6 -43 -12z"/>
</g>
</svg>
