<?xml version="1.0" standalone="no"?>
<!DOCTYPE svg PUBLIC "-//W3C//DTD SVG 20010904//EN"
 "http://www.w3.org/TR/2001/REC-SVG-20010904/DTD/svg10.dtd">
<svg version="1.0" xmlns="http://www.w3.org/2000/svg"
 width="512.000000pt" height="512.000000pt" viewBox="0 0 512.000000 512.000000"
 preserveAspectRatio="xMidYMid meet">

<g transform="translate(0.000000,512.000000) scale(0.100000,-0.100000)"
fill="#000000" stroke="none">
<path d="M2770 5109 c-747 -83 -1373 -522 -1701 -1194 -147 -301 -212 -590
-211 -935 1 -338 70 -636 218 -935 30 -60 72 -137 93 -170 l39 -60 -563 -565
c-618 -620 -612 -613 -637 -759 -47 -277 206 -530 483 -483 146 25 139 19 759
637 l565 563 45 -29 c69 -45 275 -148 371 -185 120 -46 332 -100 467 -119 131
-17 417 -20 542 -4 578 71 1105 375 1449 834 95 127 151 220 225 375 309 650
264 1427 -119 2035 -85 136 -159 228 -280 354 -311 320 -678 520 -1120 610
-189 38 -444 50 -625 30z m515 -184 c322 -51 629 -181 889 -378 104 -78 295
-269 373 -373 199 -263 327 -566 380 -900 24 -149 23 -431 -1 -574 -73 -441
-256 -802 -559 -1102 -373 -371 -855 -570 -1382 -570 -526 0 -1013 202 -1384
573 -494 493 -687 1209 -510 1885 126 481 437 903 858 1164 265 164 522 250
881 294 69 8 357 -4 455 -19z m-1846 -3400 c36 -39 103 -104 149 -145 l82 -75
-135 -135 -135 -135 -182 183 -183 182 135 135 135 136 34 -38 c19 -21 64 -70
100 -108z m-342 -427 c95 -95 173 -177 173 -183 0 -13 -162 -175 -175 -175 -5
0 -90 80 -187 177 l-178 178 87 87 c48 49 92 88 98 88 5 0 87 -78 182 -172z
m-302 -308 l180 -181 -196 -194 c-219 -218 -250 -239 -355 -238 -76 1 -137 27
-185 80 -71 79 -86 190 -38 285 19 37 392 428 409 428 3 0 86 -81 185 -180z"/>
<path d="M2870 4774 c-597 -48 -1099 -353 -1412 -857 -245 -393 -324 -914
-208 -1368 130 -510 479 -939 953 -1171 373 -183 813 -229 1222 -127 565 140
1044 571 1241 1116 78 217 106 378 106 618 0 187 -11 284 -52 445 -158 626
-664 1132 -1290 1290 -166 42 -414 66 -560 54z m350 -185 c641 -89 1183 -579
1339 -1214 63 -257 59 -566 -10 -815 -155 -560 -603 -1000 -1164 -1144 -197
-50 -462 -61 -666 -26 -679 114 -1214 651 -1330 1334 -28 161 -22 438 11 591
168 778 858 1319 1640 1288 58 -2 139 -8 180 -14z"/>
<path d="M2887 4259 c-328 -44 -586 -289 -653 -619 -38 -190 12 -321 145 -378
89 -38 218 -8 282 66 41 47 57 86 69 174 23 162 113 248 260 248 83 0 133 -23
186 -83 89 -101 85 -247 -9 -345 -40 -42 -67 -56 -147 -77 -129 -33 -208 -96
-259 -204 -25 -55 -26 -60 -26 -261 0 -191 1 -208 22 -246 84 -157 286 -190
409 -67 56 56 68 88 72 201 l4 102 82 40 c199 98 351 288 407 511 29 114 23
299 -13 409 -65 199 -224 379 -414 466 -125 58 -281 82 -417 63z m268 -190
c183 -53 331 -194 396 -379 34 -95 34 -286 1 -382 -59 -172 -208 -319 -378
-374 -27 -9 -61 -29 -76 -45 -27 -29 -28 -32 -28 -152 0 -110 -2 -126 -20
-145 -28 -30 -68 -38 -99 -21 -44 25 -51 52 -51 214 0 137 2 155 23 195 28 56
67 83 154 104 202 51 333 215 333 416 0 124 -43 222 -135 309 -130 123 -314
148 -482 66 -76 -38 -148 -107 -184 -177 -25 -49 -49 -142 -49 -190 0 -53 -36
-92 -85 -92 -53 0 -85 38 -85 103 0 67 34 191 72 264 45 86 164 203 248 244
152 73 290 86 445 42z"/>
<path d="M2902 2202 c-149 -53 -212 -222 -136 -362 46 -85 123 -130 221 -130
224 0 337 269 181 429 -70 72 -173 96 -266 63z m146 -184 c31 -29 30 -81 -3
-113 -65 -65 -173 9 -133 91 26 56 89 65 136 22z"/>
</g>
</svg>
